<svg id="Layer_1" data-name="Layer 1" xmlns="http://www.w3.org/2000/svg" viewBox="0 0 792 612"><defs><style>.cls-1{font-size:7.47px;fill:#0797a1;font-family:Chivo-Regular, Chivo;}.cls-2{font-size:16px;font-family:PublicSans-Bold, Public Sans;font-weight:700;letter-spacing:-0.01em;}.cls-2,.cls-4,.cls-5{fill:#636567;}.cls-3,.cls-6,.cls-7{fill:none;stroke:#636466;}.cls-4{font-size:18.66px;font-family:PublicSans-Black, Public Sans;font-weight:800;}.cls-5{font-size:11px;font-family:PublicSans-Regular, Public Sans;}.cls-6{stroke-width:0.5px;}.cls-7{stroke-linecap:round;}</style></defs><title>framework-team-skills</title><text class="cls-1" transform="translate(204.31 142.95)"> </text><text class="cls-2" transform="translate(15.93 24.11)">Skills &amp; Resources Framework: What skills and resources does that team have? </text><rect class="cls-3" x="15.43" y="36.46" width="183.47" height="555.35" rx="10"/><rect class="cls-3" x="207.72" y="36.46" width="183.47" height="555.35" rx="10"/><rect class="cls-3" x="400" y="36.46" width="183.47" height="555.35" rx="10"/><rect class="cls-3" x="592.29" y="36.46" width="183.47" height="555.35" rx="10"/><text class="cls-4" transform="translate(24.52 74.51)">Project Scale</text><text class="cls-4" transform="translate(212.7 74.51)">Team Skills</text><text class="cls-4" transform="translate(404.6 74.51)">Partner Skills</text><text class="cls-4" transform="translate(598.28 74.51)">Data</text><text class="cls-5" transform="translate(26.19 197.62)">Timeline</text><text class="cls-5" transform="translate(60.77 216.7)">Short term, 2-8 weeks</text><text class="cls-5" transform="translate(60.59 233.74)">Medium term, 9-12 weeks</text><text class="cls-5" transform="translate(60.6 250.78)">Long term, 12+ weeks</text><rect class="cls-6" x="42.37" y="208.27" width="8.4" height="8.4"/><rect class="cls-6" x="42.37" y="225.33" width="8.4" height="8.4"/><rect class="cls-6" x="42.37" y="242.38" width="8.4" height="8.4"/><text class="cls-5" transform="translate(27.6 280.82)">Team Size</text><text class="cls-5" transform="translate(60.6 299.56)">1-3 people</text><text class="cls-5" transform="translate(60.59 316.6)">4-6 people</text><text class="cls-5" transform="translate(60.6 333.64)">7+ people</text><rect class="cls-6" x="42.37" y="291.58" width="8.4" height="8.4"/><rect class="cls-6" x="42.37" y="308.64" width="8.4" height="8.4"/><rect class="cls-6" x="42.37" y="325.7" width="8.4" height="8.4"/><text class="cls-5" transform="translate(250.63 316.88)">Frontend</text><text class="cls-5" transform="translate(250.63 333.91)">Backend</text><text class="cls-5" transform="translate(250.63 350.96)">Database</text><text class="cls-5" transform="translate(219.32 298.17)">Programming</text><rect class="cls-6" x="235.21" y="308.72" width="8.4" height="8.4"/><rect class="cls-6" x="235.21" y="325.78" width="8.4" height="8.4"/><rect class="cls-6" x="235.21" y="342.83" width="8.4" height="8.4"/><text class="cls-5" transform="translate(250.63 398.9)">Pen + paper</text><text class="cls-5" transform="translate(250.63 415.94)">Microsoft Office</text><text class="cls-5" transform="translate(250.63 432.98)">Survey software</text><text class="cls-5" transform="translate(250.63 450.02)">Visual design software</text><text class="cls-5" transform="translate(250.63 467.06)">Off-the-shelf software</text><text class="cls-5" transform="translate(250.63 485.1)">Customizable software</text><text class="cls-5" transform="translate(221.24 380.99)">Access to Tools</text><rect class="cls-6" x="235.21" y="391.87" width="8.4" height="8.4"/><rect class="cls-6" x="235.21" y="408.92" width="8.4" height="8.4"/><rect class="cls-6" x="235.21" y="425.98" width="8.4" height="8.4"/><rect class="cls-6" x="235.21" y="443.04" width="8.4" height="8.4"/><rect class="cls-6" x="235.21" y="460.09" width="8.4" height="8.4"/><rect class="cls-6" x="235.21" y="477.15" width="8.4" height="8.4"/><text class="cls-5" transform="translate(29.52 363.68)">Leadership Buy-In</text><text class="cls-5" transform="translate(63.55 381.58)">Active sponsorship</text><text class="cls-5" transform="translate(63.55 398.62)">Delegated sponsorship</text><text class="cls-5" transform="translate(63.55 415.66)">Passive sponsorship</text><rect class="cls-6" x="42.37" y="374.55" width="8.4" height="8.4"/><rect class="cls-6" x="42.37" y="391.61" width="8.4" height="8.4"/><rect class="cls-6" x="42.37" y="408.66" width="8.4" height="8.4"/><text class="cls-5" transform="translate(29.52 445.7)">Sites </text><text class="cls-5" transform="translate(63.55 463.6)">No physical site</text><text class="cls-5" transform="translate(63.55 480.64)">Single site</text><text class="cls-5" transform="translate(63.55 497.68)">Multiple sites</text><rect class="cls-6" x="42.37" y="456.57" width="8.4" height="8.4"/><rect class="cls-6" x="42.37" y="473.63" width="8.4" height="8.4"/><rect class="cls-6" x="42.37" y="490.68" width="8.4" height="8.4"/><text class="cls-5" transform="translate(29.52 527.72)">Partner teams to work with</text><text class="cls-5" transform="translate(63.55 545.62)">0 additional teams </text><text class="cls-5" transform="translate(63.55 562.66)">1-2 additional teams</text><text class="cls-5" transform="translate(63.55 579.7)">3+ additional teams</text><rect class="cls-6" x="42.37" y="538.59" width="8.4" height="8.4"/><rect class="cls-6" x="42.37" y="555.65" width="8.4" height="8.4"/><rect class="cls-6" x="42.37" y="572.7" width="8.4" height="8.4"/><text class="cls-5" transform="translate(606.42 373.32)">Leadership Buy-In</text><text class="cls-5" transform="translate(640.46 391.22)">Active sponsorship</text><text class="cls-5" transform="translate(640.46 408.26)">Delegated sponsorship</text><text class="cls-5" transform="translate(640.46 425.3)">Passive sponsorship</text><rect class="cls-6" x="619.28" y="384.19" width="8.4" height="8.4"/><rect class="cls-6" x="619.28" y="401.25" width="8.4" height="8.4"/><rect class="cls-6" x="619.28" y="418.3" width="8.4" height="8.4"/><text class="cls-5" transform="translate(24.52 97.87)">Roles</text><text class="cls-5" transform="translate(58.55 116.46)">Project Manager</text><text class="cls-5" transform="translate(58.55 133.5)">Design Lead</text><text class="cls-5" transform="translate(58.55 150.54)">Design Maker</text><text class="cls-5" transform="translate(58.55 167.58)">Contractor Evaluator</text><rect class="cls-6" x="42.37" y="108.42" width="8.4" height="8.4"/><rect class="cls-6" x="42.37" y="125.47" width="8.4" height="8.4"/><rect class="cls-6" x="42.37" y="142.53" width="8.4" height="8.4"/><rect class="cls-6" x="42.37" y="159.59" width="8.4" height="8.4"/><text class="cls-5" transform="translate(253.6 116.77)">Article style</text><text class="cls-5" transform="translate(253.6 133.81)">White Paper style</text><text class="cls-5" transform="translate(253.6 150.85)">Technical</text><text class="cls-5" transform="translate(253.6 167.89)">Communication</text><text class="cls-5" transform="translate(216.23 97.87)">Writing</text><rect class="cls-6" x="235.21" y="108.42" width="8.4" height="8.4"/><rect class="cls-6" x="235.21" y="125.47" width="8.4" height="8.4"/><rect class="cls-6" x="235.21" y="142.53" width="8.4" height="8.4"/><rect class="cls-6" x="235.21" y="159.59" width="8.4" height="8.4"/><text class="cls-5" transform="translate(252.31 217.01)">Illustration</text><text class="cls-5" transform="translate(252.31 234.05)">Data visualization</text><text class="cls-5" transform="translate(252.31 251.09)">Layout</text><text class="cls-5" transform="translate(252.31 268.13)">Communications</text><text class="cls-5" transform="translate(217.91 197.93)">Visual Design</text><rect class="cls-6" x="235.21" y="208.59" width="8.4" height="8.4"/><rect class="cls-6" x="235.21" y="225.64" width="8.4" height="8.4"/><rect class="cls-6" x="235.21" y="242.7" width="8.4" height="8.4"/><rect class="cls-6" x="235.21" y="259.76" width="8.4" height="8.4"/><text class="cls-5" transform="translate(444 316.88)">Frontend</text><text class="cls-5" transform="translate(444 333.92)">Backend</text><text class="cls-5" transform="translate(444 350.96)">Database</text><text class="cls-5" transform="translate(412.69 298.17)">Programming</text><rect class="cls-6" x="427.57" y="308.72" width="8.4" height="8.4"/><rect class="cls-6" x="427.57" y="325.78" width="8.4" height="8.4"/><rect class="cls-6" x="427.57" y="342.83" width="8.4" height="8.4"/><text class="cls-5" transform="translate(444 398.9)">Pen + paper</text><text class="cls-5" transform="translate(444 415.94)">Microsoft Office</text><text class="cls-5" transform="translate(444 432.98)">Survey software</text><text class="cls-5" transform="translate(444 450.02)">Visual design software</text><text class="cls-5" transform="translate(444 467.06)">Off-the-shelf software</text><text class="cls-5" transform="translate(444 484.1)">Customizable software</text><text class="cls-5" transform="translate(414.6 381)">Access to Tools</text><rect class="cls-6" x="427.57" y="391.87" width="8.4" height="8.4"/><rect class="cls-6" x="427.57" y="408.92" width="8.4" height="8.4"/><rect class="cls-6" x="427.57" y="425.98" width="8.4" height="8.4"/><rect class="cls-6" x="427.57" y="443.04" width="8.4" height="8.4"/><rect class="cls-6" x="427.57" y="460.09" width="8.4" height="8.4"/><rect class="cls-6" x="427.57" y="477.15" width="8.4" height="8.4"/><text class="cls-5" transform="translate(444 116.77)">Article style</text><text class="cls-5" transform="translate(444 133.81)">White Paper style</text><text class="cls-5" transform="translate(444 150.85)">Technical</text><text class="cls-5" transform="translate(444 167.89)">Communication</text><text class="cls-5" transform="translate(409.6 97.87)">Writing</text><rect class="cls-6" x="427.57" y="108.42" width="8.4" height="8.4"/><rect class="cls-6" x="427.57" y="125.47" width="8.4" height="8.4"/><rect class="cls-6" x="427.57" y="142.53" width="8.4" height="8.4"/><rect class="cls-6" x="427.57" y="159.59" width="8.4" height="8.4"/><text class="cls-5" transform="translate(445.68 217.01)">Illustration</text><text class="cls-5" transform="translate(445.68 234.05)">Data visualization</text><text class="cls-5" transform="translate(445.68 251.09)">Layout</text><text class="cls-5" transform="translate(445.68 268.13)">Communications</text><text class="cls-5" transform="translate(411.28 197.93)">Visual Design</text><rect class="cls-6" x="427.57" y="208.59" width="8.4" height="8.4"/><rect class="cls-6" x="427.57" y="225.64" width="8.4" height="8.4"/><rect class="cls-6" x="427.57" y="242.7" width="8.4" height="8.4"/><rect class="cls-6" x="427.57" y="259.76" width="8.4" height="8.4"/><text class="cls-5" transform="translate(634.91 309.2)">Qualitative data</text><text class="cls-5" transform="translate(634.91 326.24)">Quantitative data</text><text class="cls-5" transform="translate(634.91 343.28)">Mixed data types</text><text class="cls-5" transform="translate(603.6 290.49)">Data Type</text><rect class="cls-6" x="619.24" y="301.04" width="8.4" height="8.4"/><rect class="cls-6" x="619.24" y="318.1" width="8.4" height="8.4"/><rect class="cls-6" x="619.24" y="335.15" width="8.4" height="8.4"/><text class="cls-5" transform="translate(634.91 116.77)">Owned by partner</text><text class="cls-5" transform="translate(634.91 133.81)">Owned by design team</text><text class="cls-5" transform="translate(634.91 150.85)">Not owned by either team; <tspan x="0" y="13.2">data owned by third party</tspan></text><text class="cls-5" transform="translate(600.51 97.87)">Data Ownership</text><rect class="cls-6" x="619.24" y="108.42" width="8.4" height="8.4"/><rect class="cls-6" x="619.24" y="125.47" width="8.4" height="8.4"/><rect class="cls-6" x="619.24" y="142.53" width="8.4" height="8.4"/><text class="cls-5" transform="translate(636.59 213.17)">Generated by partner</text><text class="cls-5" transform="translate(636.59 230.21)">Generated by participants</text><text class="cls-5" transform="translate(636.59 247.25)">Generated by Discovery <tspan x="0" y="13.2">Phased</tspan></text><text class="cls-5" transform="translate(602.19 194.09)">Data Generation</text><rect class="cls-6" x="619.24" y="204.75" width="8.4" height="8.4"/><rect class="cls-6" x="619.24" y="221.8" width="8.4" height="8.4"/><rect class="cls-6" x="619.24" y="238.86" width="8.4" height="8.4"/><text class="cls-5" transform="translate(221.24 515.14)">Additional Skills</text><rect class="cls-6" x="234.09" y="526.01" width="8.4" height="8.4"/><rect class="cls-6" x="234.09" y="543.06" width="8.4" height="8.4"/><rect class="cls-6" x="234.09" y="560.12" width="8.4" height="8.4"/><line class="cls-7" x1="250.27" y1="533.04" x2="370.63" y2="533.04"/><line class="cls-7" x1="250.27" y1="551.46" x2="370.63" y2="551.46"/><line class="cls-7" x1="250.27" y1="568.52" x2="370.63" y2="568.52"/><text class="cls-5" transform="translate(414.6 514.14)">Additional Skills</text><rect class="cls-6" x="427.46" y="525.01" width="8.4" height="8.4"/><rect class="cls-6" x="427.46" y="542.07" width="8.4" height="8.4"/><rect class="cls-6" x="427.46" y="559.12" width="8.4" height="8.4"/><line class="cls-7" x1="443.63" y1="532.04" x2="563.99" y2="532.04"/><line class="cls-7" x1="443.63" y1="550.46" x2="563.99" y2="550.46"/><line class="cls-7" x1="443.63" y1="567.52" x2="563.99" y2="567.52"/><text class="cls-5" transform="translate(606.42 455.34)">Additional Notes on Data</text><line class="cls-7" x1="607.83" y1="473.24" x2="755.81" y2="473.24"/><line class="cls-7" x1="607.83" y1="491.66" x2="755.81" y2="491.66"/><line class="cls-7" x1="607.83" y1="508.72" x2="755.81" y2="508.72"/></svg>