<svg id="Layer_1" data-name="Layer 1" xmlns="http://www.w3.org/2000/svg" xmlns:xlink="http://www.w3.org/1999/xlink" viewBox="0 0 792 612"><defs><style>.cls-1,.cls-10,.cls-11,.cls-115,.cls-119,.cls-4,.cls-6,.cls-9{fill:none;}.cls-2{clip-path:url(#clip-path);}.cls-3{fill:#f2f1e6;}.cls-10,.cls-11,.cls-115,.cls-4{stroke:#636466;}.cls-5{fill:#fff;}.cls-6{stroke:#0797a1;}.cls-7{fill:#efeff3;}.cls-8{fill:#dbe0ea;}.cls-9{stroke:#fff;}.cls-10{stroke-linecap:round;stroke-width:3px;stroke-dasharray:0 10.02;}.cls-10,.cls-115{stroke-linejoin:round;}.cls-11{stroke-width:2px;}.cls-12,.cls-13{font-size:18.66px;font-family:PublicSans-Black, Public Sans;font-weight:800;}.cls-12{fill:#636466;}.cls-105,.cls-127,.cls-13{fill:#636567;}.cls-103,.cls-105,.cls-110,.cls-112,.cls-116,.cls-126,.cls-128,.cls-14,.cls-21,.cls-32,.cls-40,.cls-45,.cls-61,.cls-93{font-size:7.47px;}.cls-116,.cls-126,.cls-14,.cls-21,.cls-32,.cls-45,.cls-61{fill:#006092;}.cls-103,.cls-104,.cls-105,.cls-110,.cls-116,.cls-126,.cls-14,.cls-21,.cls-32,.cls-40,.cls-45,.cls-61,.cls-93{font-family:PublicSans-ExtraLight, Public Sans;font-weight:200;}.cls-15{letter-spacing:0em;}.cls-16{letter-spacing:-0.01em;}.cls-17{letter-spacing:0em;}.cls-18{letter-spacing:-0.01em;}.cls-126,.cls-19{letter-spacing:-0.01em;}.cls-20{letter-spacing:0.01em;}.cls-21{letter-spacing:-0.02em;}.cls-22{letter-spacing:-0.01em;}.cls-23{letter-spacing:-0.01em;}.cls-24{letter-spacing:-0.04em;}.cls-25{letter-spacing:-0.01em;}.cls-26{letter-spacing:-0.03em;}.cls-27{letter-spacing:0em;}.cls-28{letter-spacing:-0.01em;}.cls-29{letter-spacing:-0.02em;}.cls-30{letter-spacing:-0.03em;}.cls-31{letter-spacing:-0.01em;}.cls-32,.cls-92{letter-spacing:-0.02em;}.cls-33{letter-spacing:-0.01em;}.cls-34{letter-spacing:-0.03em;}.cls-116,.cls-35{letter-spacing:-0.01em;}.cls-36{letter-spacing:-0.02em;}.cls-37{letter-spacing:-0.01em;}.cls-38{letter-spacing:-0.01em;}.cls-39{letter-spacing:0em;}.cls-40{fill:#006192;}.cls-41,.cls-45{letter-spacing:-0.02em;}.cls-42{letter-spacing:-0.02em;}.cls-43{letter-spacing:-0.01em;}.cls-44{letter-spacing:-0.02em;}.cls-46{letter-spacing:-0.03em;}.cls-47{letter-spacing:0em;}.cls-48{letter-spacing:0em;}.cls-49{letter-spacing:-0.01em;}.cls-50{letter-spacing:0em;}.cls-51{letter-spacing:-0.01em;}.cls-52{letter-spacing:-0.01em;}.cls-53{letter-spacing:-0.02em;}.cls-54{letter-spacing:0.01em;}.cls-55{letter-spacing:0em;}.cls-56{letter-spacing:0em;}.cls-57{letter-spacing:-0.02em;}.cls-58{letter-spacing:-0.01em;}.cls-59{letter-spacing:-0.01em;}.cls-60{letter-spacing:0.01em;}.cls-61{letter-spacing:-0.03em;}.cls-62{letter-spacing:-0.02em;}.cls-63{letter-spacing:-0.04em;}.cls-64{letter-spacing:-0.03em;}.cls-65{letter-spacing:-0.05em;}.cls-66{letter-spacing:-0.03em;}.cls-67{letter-spacing:-0.04em;}.cls-68{letter-spacing:-0.03em;}.cls-69{letter-spacing:-0.03em;}.cls-70{letter-spacing:-0.02em;}.cls-71{letter-spacing:-0.02em;}.cls-72{letter-spacing:-0.03em;}.cls-73{letter-spacing:-0.01em;}.cls-74{letter-spacing:-0.02em;}.cls-75{letter-spacing:0em;}.cls-76{letter-spacing:0em;}.cls-77{letter-spacing:-0.01em;}.cls-78{letter-spacing:0.01em;}.cls-79{letter-spacing:-0.03em;}.cls-80{letter-spacing:-0.02em;}.cls-81{letter-spacing:0.01em;}.cls-82{letter-spacing:-0.03em;}.cls-83{letter-spacing:-0.01em;}.cls-84{letter-spacing:-0.02em;}.cls-85{letter-spacing:0em;}.cls-86{letter-spacing:-0.01em;}.cls-87{letter-spacing:-0.01em;}.cls-88{letter-spacing:-0.01em;}.cls-89{letter-spacing:0em;}.cls-90{letter-spacing:-0.03em;}.cls-91{letter-spacing:-0.02em;}.cls-93{fill:#346f9d;}.cls-94{letter-spacing:-0.01em;}.cls-95{letter-spacing:0.01em;}.cls-96{letter-spacing:-0.04em;}.cls-97{letter-spacing:-0.02em;}.cls-98{letter-spacing:-0.01em;}.cls-99{letter-spacing:-0.02em;}.cls-100{letter-spacing:0.01em;}.cls-101{letter-spacing:0em;}.cls-102{letter-spacing:-0.01em;}.cls-103,.cls-104,.cls-112{fill:#0797a1;}.cls-104{font-size:7.78px;}.cls-106{letter-spacing:0em;}.cls-107{letter-spacing:0em;}.cls-108{letter-spacing:0.02em;}.cls-109{letter-spacing:-0.02em;}.cls-110{fill:#fbbd9a;}.cls-111{letter-spacing:-0.01em;}.cls-112{font-family:Chivo-Regular, Chivo;}.cls-113{letter-spacing:-0.02em;}.cls-114{fill:#cbd3e1;}.cls-117{letter-spacing:-0.03em;}.cls-118{letter-spacing:-0.02em;}.cls-119{stroke:#231f20;}.cls-120{letter-spacing:-0.04em;}.cls-121{letter-spacing:0em;}.cls-122,.cls-128{letter-spacing:-0.01em;}.cls-123{letter-spacing:-0.02em;}.cls-124{letter-spacing:0.01em;}.cls-125{clip-path:url(#clip-path-7);}.cls-127{font-size:16px;font-family:PublicSans-Bold, Public Sans;font-weight:700;letter-spacing:-0.01em;}.cls-129{clip-path:url(#clip-path-8);}</style><clipPath id="clip-path"><rect class="cls-1" x="12.74" y="-13.52" width="767.57" height="612.35"/></clipPath><clipPath id="clip-path-7"><rect class="cls-1" x="267.45" y="27.1" width="512.52" height="84.59"/></clipPath><clipPath id="clip-path-8"><rect class="cls-1" x="378.05" y="125.55" width="23.71" height="86.18"/></clipPath></defs><title>framework-convergent_thinking</title><g class="cls-2"><path class="cls-3" d="M379,125.88c8,12.22,12.1,28.56,12.1,28.56H776.73V125.88Z"/></g><polyline class="cls-4" points="401.76 211.73 776.73 211.73 776.73 126.66 378.98 126.66"/><g class="cls-2"><path class="cls-3" d="M202.86,29.61c-53.94,0-98.9,28.56-98.9,28.56H15.13V40.81s1.65-11.2,10.57-11.2Z"/></g><rect class="cls-3" x="15.59" y="30.08" width="11.51" height="11.51"/><g class="cls-2"><path class="cls-3" d="M269.88,29.61c29.18,10.89,52.56,28.56,52.56,28.56H776.88V40.81s0-11.2-11.19-11.2Z"/></g><rect class="cls-3" x="766" y="30.08" width="11.51" height="11.51"/><g class="cls-2"><rect class="cls-4" x="15.59" y="30.08" width="181.65" height="567.66"/><path class="cls-5" d="M197.24,405.05V211.77H390.31v-.47C387,110.66,304.43,30.08,203,30.08,99.5,30.08,15.59,114,15.59,217.49c0,101.57,80.8,184.26,181.63,187.32"/><path class="cls-6" d="M197.24,405.05V211.77H390.31v-.47C387,110.66,304.43,30.08,203,30.08,99.5,30.08,15.59,114,15.59,217.49c0,101.57,80.8,184.26,181.63,187.32"/><path class="cls-7" d="M326,211.88A123.08,123.08,0,1,0,197.24,340.44"/><path class="cls-4" d="M326,211.88A123.08,123.08,0,1,0,197.24,340.44"/><path class="cls-8" d="M202.86,277.67a60.33,60.33,0,1,0-60.32-60.33,60.33,60.33,0,0,0,60.32,60.33"/><circle class="cls-4" cx="202.86" cy="217.34" r="60.32"/></g><rect class="cls-5" x="198.18" y="212.67" width="193.37" height="192.85"/><rect class="cls-9" x="198.18" y="212.67" width="193.37" height="192.85"/><rect class="cls-3" x="208.6" y="319.04" width="568.13" height="28.55"/><rect class="cls-3" x="208.6" y="222.78" width="568.13" height="28.55"/><rect class="cls-4" x="208.75" y="223.24" width="567.97" height="85.07"/><line class="cls-10" x1="224.16" y1="292.78" x2="765.03" y2="292.78"/><line class="cls-11" x1="217.16" y1="287.33" x2="217.16" y2="297.82"/><polyline class="cls-11" points="760.77 288.62 765.03 292.57 760.77 296.53"/><text class="cls-12" transform="translate(215.75 244.02)">WHEN</text><text class="cls-12" transform="translate(393.26 147.12)">WHERE</text><rect class="cls-4" x="208.75" y="319.82" width="567.97" height="85.07"/><text class="cls-13" transform="translate(215.75 340.29)">WHY</text><g class="cls-2"><path class="cls-4" d="M197.24,405.05V211.77H390.31v-.47C387,110.66,304.43,30.08,203,30.08,99.5,30.08,15.59,114,15.59,217.49c0,101.57,80.8,184.26,181.63,187.32"/></g><text class="cls-14" transform="translate(149.98 216.11)"><tspan class="cls-15">P</tspan><tspan class="cls-16" x="4.73" y="0">r</tspan><tspan class="cls-17" x="7.5" y="0">i</tspan><tspan class="cls-18" x="9.36" y="0">m</tspan><tspan class="cls-19" x="15.94" y="0">a</tspan><tspan class="cls-20" x="20.09" y="0">r</tspan><tspan x="23.02" y="0">y</tspan></text><text class="cls-14" transform="translate(176.87 216.11)"> </text><text class="cls-21" transform="translate(149.98 225.07)">S<tspan class="cls-22" x="4.96" y="0">t</tspan><tspan class="cls-23" x="7.76" y="0">a</tspan><tspan class="cls-24" x="11.88" y="0">k</tspan><tspan class="cls-23" x="15.75" y="0">e</tspan><tspan class="cls-25" x="19.84" y="0">h</tspan><tspan class="cls-23" x="24.01" y="0">o</tspan><tspan class="cls-26" x="28.11" y="0">l</tspan><tspan class="cls-23" x="30.09" y="0">de</tspan><tspan class="cls-27" x="38.36" y="0">r</tspan></text><text class="cls-14" transform="translate(87.91 216.11)"><tspan class="cls-28">S</tspan><tspan class="cls-29" x="5.08" y="0">e</tspan><tspan class="cls-30" x="9.15" y="0">c</tspan><tspan class="cls-16" x="13.05" y="0">onda</tspan><tspan class="cls-20" x="29.76" y="0">r</tspan><tspan class="cls-31" x="32.7" y="0">y</tspan><tspan x="36.59" y="0"> </tspan></text><text class="cls-14" transform="translate(126.19 216.11)"> </text><text class="cls-32" transform="translate(87.91 225.07)">S<tspan class="cls-33" x="4.99" y="0">t</tspan><tspan class="cls-19" x="7.84" y="0">a</tspan><tspan class="cls-34" x="11.99" y="0">k</tspan><tspan class="cls-16" x="15.9" y="0">e</tspan><tspan class="cls-35" x="20.03" y="0">h</tspan><tspan class="cls-16" x="24.23" y="0">o</tspan><tspan class="cls-36" x="28.37" y="0">l</tspan><tspan class="cls-19" x="30.4" y="0">d</tspan><tspan class="cls-37" x="34.61" y="0">e</tspan><tspan class="cls-38" x="38.73" y="0">r</tspan><tspan class="cls-39" x="41.48" y="0">s</tspan></text><text class="cls-40" transform="translate(24.15 216.11)"><tspan class="cls-41">P</tspan><tspan class="cls-35" x="4.6" y="0">e</tspan><tspan class="cls-16" x="8.72" y="0">r</tspan><tspan class="cls-17" x="11.49" y="0">i</tspan><tspan class="cls-19" x="13.35" y="0">phe</tspan><tspan class="cls-42" x="25.99" y="0">r</tspan><tspan class="cls-43" x="28.65" y="0">a</tspan><tspan class="cls-39" x="32.79" y="0">l</tspan><tspan class="cls-44" x="35" y="0"> </tspan><tspan x="36.74" y="0"> </tspan></text><text class="cls-45" transform="translate(24.15 225.07)">S<tspan class="cls-33" x="4.99" y="0">t</tspan><tspan class="cls-19" x="7.83" y="0">a</tspan><tspan class="cls-26" x="11.98" y="0">k</tspan><tspan class="cls-16" x="15.9" y="0">eho</tspan><tspan class="cls-46" x="28.37" y="0">l</tspan><tspan class="cls-19" x="30.4" y="0">d</tspan><tspan class="cls-37" x="34.61" y="0">e</tspan><tspan class="cls-38" x="38.73" y="0">r</tspan><tspan class="cls-39" x="41.48" y="0">s</tspan></text><text class="cls-14" transform="translate(468.84 138.88)">W<tspan class="cls-47" x="7.11" y="0">h</tspan><tspan class="cls-29" x="11.41" y="0">a</tspan><tspan x="15.5" y="0">t p</tspan><tspan class="cls-48" x="24.65" y="0">h</tspan><tspan class="cls-18" x="28.9" y="0">y</tspan><tspan x="32.78" y="0">si</tspan><tspan class="cls-49" x="38.5" y="0">c</tspan><tspan class="cls-50" x="42.49" y="0">a</tspan><tspan x="46.7" y="0">l</tspan><tspan class="cls-51" x="48.92" y="0"> </tspan><tspan x="50.72" y="0">e</tspan><tspan class="cls-52" x="54.91" y="0">n</tspan><tspan x="59.11" y="0">v</tspan><tspan class="cls-47" x="62.86" y="0">i</tspan><tspan class="cls-53" x="64.75" y="0">r</tspan><tspan x="67.48" y="0">o</tspan><tspan class="cls-54" x="71.68" y="0">n</tspan><tspan class="cls-55" x="76.01" y="0">me</tspan><tspan class="cls-29" x="86.83" y="0">n</tspan><tspan class="cls-56" x="90.98" y="0">t(</tspan><tspan class="cls-37" x="96.06" y="0">s</tspan><tspan class="cls-56" x="99.84" y="0">)</tspan><tspan class="cls-57" x="102.07" y="0">,</tspan><tspan class="cls-55" x="103.58" y="0"> </tspan><tspan class="cls-58" x="105.46" y="0">g</tspan><tspan class="cls-33" x="109.93" y="0">e</tspan><tspan class="cls-43" x="114.07" y="0">o</tspan><tspan x="118.19" y="0">g</tspan><tspan class="cls-59" x="122.73" y="0">r</tspan><tspan x="125.46" y="0">ap</tspan><tspan class="cls-60" x="134.04" y="0">h</tspan><tspan x="138.36" y="0">i</tspan><tspan class="cls-49" x="140.24" y="0">c</tspan><tspan class="cls-50" x="144.22" y="0">a</tspan><tspan class="cls-55" x="148.43" y="0">l </tspan></text><text class="cls-61" transform="translate(468.84 146.96)">r<tspan class="cls-23" x="2.61" y="0">egion(</tspan><tspan class="cls-62" x="23.25" y="0">s</tspan><tspan class="cls-59" x="26.92" y="0">)</tspan><tspan class="cls-63" x="29.05" y="0">,</tspan><tspan class="cls-64" x="30.44" y="0"> </tspan><tspan class="cls-23" x="32.13" y="0">o</tspan><tspan class="cls-65" x="36.23" y="0">r</tspan><tspan class="cls-66" x="38.7" y="0"> </tspan><tspan class="cls-67" x="40.39" y="0">o</tspan><tspan class="cls-23" x="44.33" y="0">t</tspan><tspan class="cls-53" x="47.13" y="0">h</tspan><tspan class="cls-23" x="51.29" y="0">e</tspan><tspan class="cls-65" x="55.38" y="0">r</tspan><tspan class="cls-66" x="57.85" y="0"> </tspan><tspan class="cls-68" x="59.54" y="0">c</tspan><tspan class="cls-23" x="63.4" y="0">o</tspan><tspan class="cls-69" x="67.5" y="0">n</tspan><tspan class="cls-70" x="71.54" y="0">t</tspan><tspan class="cls-63" x="74.28" y="0">e</tspan><tspan class="cls-71" x="78.2" y="0">x</tspan><tspan class="cls-59" x="82.21" y="0">t(</tspan><tspan class="cls-36" x="87.07" y="0">s</tspan><tspan class="cls-59" x="90.74" y="0">)</tspan><tspan class="cls-72" x="92.86" y="0"> </tspan><tspan class="cls-23" x="94.48" y="0">w</tspan><tspan class="cls-73" x="100.32" y="0">i</tspan><tspan class="cls-66" x="102.1" y="0">l</tspan><tspan class="cls-23" x="104.12" y="0">l</tspan><tspan class="cls-74" x="106.23" y="0"> </tspan><tspan class="cls-42" x="108" y="0">y</tspan><tspan class="cls-70" x="111.74" y="0">o</tspan><tspan class="cls-23" x="115.77" y="0">u </tspan><tspan class="cls-57" x="121.73" y="0">f</tspan><tspan class="cls-23" x="124.55" y="0">o</tspan><tspan class="cls-42" x="128.64" y="0">c</tspan><tspan class="cls-23" x="132.55" y="0">u</tspan><tspan class="cls-64" x="136.73" y="0">s </tspan><tspan class="cls-23" x="142.07" y="0">on</tspan><tspan class="cls-55" x="150.35" y="0">? </tspan></text><text class="cls-14" transform="translate(280.09 235.77)">W<tspan class="cls-75" x="7.11" y="0">h</tspan><tspan class="cls-29" x="11.41" y="0">a</tspan><tspan x="15.5" y="0">t pa</tspan><tspan class="cls-76" x="28.88" y="0">r</tspan><tspan class="cls-27" x="31.72" y="0">ti</tspan><tspan class="cls-77" x="36.5" y="0">c</tspan><tspan class="cls-78" x="40.52" y="0">u</tspan><tspan x="44.86" y="0">la</tspan><tspan class="cls-79" x="51.29" y="0">r</tspan><tspan x="53.88" y="0" xml:space="preserve"> mome</tspan><tspan class="cls-29" x="77.4" y="0">n</tspan><tspan x="81.56" y="0">t(</tspan><tspan class="cls-35" x="86.63" y="0">s</tspan><tspan x="90.41" y="0">)</tspan><tspan class="cls-80" x="92.64" y="0">,</tspan><tspan x="94.15" y="0" xml:space="preserve"> period(</tspan><tspan class="cls-43" x="119.96" y="0">s</tspan><tspan x="123.73" y="0">)</tspan><tspan class="cls-43" x="125.96" y="0"> </tspan><tspan class="cls-36" x="127.76" y="0">o</tspan><tspan x="131.77" y="0">f</tspan><tspan class="cls-74" x="134.75" y="0"> </tspan><tspan class="cls-56" x="136.51" y="0">t</tspan><tspan class="cls-81" x="139.42" y="0">i</tspan><tspan class="cls-55" x="141.35" y="0">me,</tspan></text><text class="cls-14" transform="translate(433.72 235.77)"> </text><text class="cls-14" transform="translate(280.09 243.85)">o<tspan class="cls-82" x="4.2" y="0">r</tspan><tspan x="6.79" y="0"> </tspan><tspan class="cls-83" x="8.67" y="0">s</tspan><tspan class="cls-33" x="12.44" y="0">e</tspan><tspan x="16.57" y="0">quen</tspan><tspan class="cls-53" x="33.69" y="0">c</tspan><tspan x="37.66" y="0">e(</tspan><tspan class="cls-35" x="44.03" y="0">s</tspan><tspan x="47.81" y="0">)</tspan><tspan class="cls-52" x="50.04" y="0"> </tspan><tspan class="cls-36" x="51.83" y="0">o</tspan><tspan x="55.85" y="0">f</tspan><tspan class="cls-43" x="58.82" y="0"> </tspan><tspan class="cls-84" x="60.62" y="0">e</tspan><tspan class="cls-16" x="64.7" y="0">v</tspan><tspan x="68.38" y="0">e</tspan><tspan class="cls-29" x="72.58" y="0">n</tspan><tspan x="76.73" y="0">t</tspan><tspan class="cls-83" x="79.64" y="0">s</tspan><tspan class="cls-41" x="83.41" y="0"> </tspan><tspan class="cls-39" x="85.15" y="0">w</tspan><tspan class="cls-85" x="91.09" y="0">i</tspan><tspan class="cls-83" x="92.97" y="0">l</tspan><tspan x="95.1" y="0">l</tspan><tspan class="cls-50" x="97.32" y="0"> </tspan><tspan class="cls-33" x="99.2" y="0">yo</tspan><tspan class="cls-27" x="107.21" y="0">u </tspan><tspan class="cls-86" x="113.37" y="0">f</tspan><tspan x="116.3" y="0">o</tspan><tspan class="cls-87" x="120.5" y="0">c</tspan><tspan class="cls-56" x="124.52" y="0">u</tspan><tspan class="cls-88" x="128.8" y="0">s</tspan><tspan class="cls-43" x="132.56" y="0"> </tspan><tspan x="134.36" y="0" xml:space="preserve">on?  </tspan></text><text class="cls-14" transform="translate(266.09 336.6)"><tspan class="cls-19">W</tspan><tspan class="cls-89" x="7.04" y="0">h</tspan><tspan class="cls-90" x="11.28" y="0">a</tspan><tspan class="cls-16" x="15.3" y="0">t i</tspan><tspan class="cls-91" x="21.75" y="0">s</tspan><tspan class="cls-90" x="25.45" y="0"> </tspan><tspan class="cls-16" x="27.13" y="0">th</tspan><tspan class="cls-92" x="34.17" y="0">e</tspan><tspan class="cls-16" x="38.24" y="0" xml:space="preserve"> design principle this design aligns with</tspan><tspan x="171.8" y="0">? </tspan></text><text class="cls-93" transform="translate(24.76 427.41)">In<tspan class="cls-84" x="6.27" y="0"> </tspan><tspan x="8.03" y="0">th</tspan><tspan class="cls-33" x="15.21" y="0">e</tspan><tspan class="cls-83" x="19.35" y="0"> </tspan><tspan x="21.15" y="0">c</tspan><tspan class="cls-75" x="25.23" y="0">i</tspan><tspan class="cls-94" x="27.14" y="0">r</tspan><tspan class="cls-50" x="29.86" y="0">c</tspan><tspan class="cls-84" x="33.94" y="0">l</tspan><tspan class="cls-16" x="36.03" y="0">e</tspan><tspan class="cls-83" x="40.16" y="0">s</tspan><tspan x="43.93" y="0" xml:space="preserve"> a</tspan><tspan class="cls-33" x="50.03" y="0">b</tspan><tspan class="cls-57" x="54.35" y="0">o</tspan><tspan class="cls-77" x="58.38" y="0">v</tspan><tspan x="62.07" y="0">e</tspan><tspan class="cls-91" x="66.27" y="0">,</tspan><tspan x="67.78" y="0" xml:space="preserve"> pla</tspan><tspan class="cls-25" x="80.47" y="0">c</tspan><tspan class="cls-77" x="84.44" y="0">e</tspan><tspan class="cls-84" x="88.57" y="0"> </tspan><tspan class="cls-27" x="90.33" y="0">th</tspan><tspan class="cls-33" x="97.52" y="0">e</tspan><tspan x="101.65" y="0" xml:space="preserve"> p</tspan><tspan class="cls-33" x="107.9" y="0">e</tspan><tspan x="112.04" y="0">op</tspan><tspan class="cls-84" x="120.61" y="0">l</tspan><tspan x="122.7" y="0">e/g</tspan><tspan class="cls-25" x="133.95" y="0">r</tspan><tspan class="cls-33" x="136.68" y="0">o</tspan><tspan class="cls-81" x="140.82" y="0">u</tspan><tspan class="cls-39" x="145.17" y="0">p</tspan><tspan class="cls-38" x="149.53" y="0">s</tspan><tspan x="153.29" y="0"> </tspan></text><text class="cls-93" transform="translate(24.76 435.49)"><tspan class="cls-77">yo</tspan><tspan x="8.01" y="0">u</tspan><tspan class="cls-84" x="12.29" y="0"> </tspan><tspan x="14.06" y="0">t</tspan><tspan class="cls-60" x="16.96" y="0">h</tspan><tspan class="cls-95" x="21.28" y="0">i</tspan><tspan class="cls-39" x="23.22" y="0">n</tspan><tspan class="cls-96" x="27.5" y="0">k</tspan><tspan class="cls-17" x="31.33" y="0"> </tspan><tspan class="cls-77" x="33.2" y="0">yo</tspan><tspan x="41.21" y="0">u</tspan><tspan class="cls-97" x="45.5" y="0"> </tspan><tspan class="cls-39" x="47.24" y="0">w</tspan><tspan class="cls-85" x="53.18" y="0">i</tspan><tspan class="cls-43" x="55.06" y="0">l</tspan><tspan class="cls-39" x="57.2" y="0">l </tspan><tspan class="cls-98" x="61.3" y="0">f</tspan><tspan x="64.22" y="0">o</tspan><tspan class="cls-19" x="68.42" y="0">c</tspan><tspan x="72.44" y="0">u</tspan><tspan class="cls-43" x="76.73" y="0">s</tspan><tspan class="cls-52" x="80.5" y="0"> </tspan><tspan x="82.29" y="0">on</tspan><tspan class="cls-99" x="90.77" y="0">,</tspan><tspan x="92.29" y="0"> </tspan><tspan class="cls-78" x="94.17" y="0">a</tspan><tspan class="cls-39" x="98.44" y="0">nd </tspan><tspan class="cls-100" x="108.88" y="0">i</tspan><tspan class="cls-39" x="110.81" y="0">n</tspan><tspan class="cls-29" x="115.1" y="0"> </tspan><tspan x="116.85" y="0">th</tspan><tspan class="cls-98" x="124.03" y="0">e</tspan><tspan class="cls-39" x="128.17" y="0" xml:space="preserve"> spa</tspan><tspan class="cls-23" x="142.49" y="0">c</tspan><tspan class="cls-98" x="146.47" y="0">e</tspan><tspan class="cls-39" x="150.61" y="0"> </tspan></text><text class="cls-93" transform="translate(24.76 443.57)"><tspan class="cls-33">b</tspan><tspan x="4.31" y="0">e</tspan><tspan class="cls-84" x="8.51" y="0">l</tspan><tspan class="cls-92" x="10.61" y="0">o</tspan><tspan x="14.68" y="0">w</tspan><tspan class="cls-99" x="20.62" y="0">,</tspan><tspan class="cls-38" x="22.13" y="0"> </tspan><tspan class="cls-91" x="23.93" y="0">e</tspan><tspan x="27.96" y="0">xp</tspan><tspan class="cls-101" x="36.47" y="0">l</tspan><tspan class="cls-78" x="38.7" y="0">ai</tspan><tspan class="cls-39" x="44.9" y="0">n a b</tspan><tspan class="cls-101" x="61.53" y="0">i</tspan><tspan x="63.42" y="0">t mo</tspan><tspan class="cls-25" x="79.02" y="0">r</tspan><tspan class="cls-102" x="81.75" y="0">e</tspan><tspan class="cls-39" x="85.89" y="0" xml:space="preserve"> a</tspan><tspan class="cls-33" x="91.99" y="0">bo</tspan><tspan x="100.45" y="0">ut</tspan><tspan class="cls-44" x="107.64" y="0"> </tspan><tspan class="cls-39" x="109.37" y="0">wh</tspan><tspan class="cls-52" x="119.59" y="0">o</tspan><tspan class="cls-74" x="123.7" y="0"> </tspan><tspan x="125.47" y="0">th</tspan><tspan class="cls-29" x="132.65" y="0">e</tspan><tspan class="cls-31" x="136.71" y="0">y</tspan><tspan x="140.6" y="0" xml:space="preserve"> a</tspan><tspan class="cls-25" x="146.7" y="0">r</tspan><tspan x="149.43" y="0">e.</tspan></text><text class="cls-103" transform="translate(179.73 443.57)"> </text><text class="cls-104" transform="translate(24.77 451.67)"> </text><text class="cls-105" transform="translate(22.28 461)"><tspan class="cls-106">D</tspan><tspan x="5.1" y="0">em</tspan><tspan class="cls-43" x="15.92" y="0">o</tspan><tspan x="20.04" y="0">g</tspan><tspan class="cls-25" x="24.57" y="0">r</tspan><tspan x="27.3" y="0">ap</tspan><tspan class="cls-60" x="35.88" y="0">h</tspan><tspan class="cls-27" x="40.21" y="0">ic</tspan><tspan class="cls-91" x="46.16" y="0">,</tspan><tspan x="47.68" y="0" xml:space="preserve"> p</tspan><tspan class="cls-25" x="53.93" y="0">r</tspan><tspan class="cls-36" x="56.65" y="0">o</tspan><tspan class="cls-98" x="60.67" y="0">f</tspan><tspan class="cls-19" x="63.59" y="0">e</tspan><tspan x="67.72" y="0">ssio</tspan><tspan class="cls-75" x="81.5" y="0">n</tspan><tspan class="cls-17" x="85.82" y="0">a</tspan><tspan class="cls-107" x="90.03" y="0">l</tspan><tspan class="cls-80" x="92.26" y="0">,</tspan><tspan x="93.77" y="0" xml:space="preserve"> si</tspan><tspan class="cls-15" x="101.38" y="0">t</tspan><tspan class="cls-39" x="104.26" y="0">u</tspan><tspan class="cls-29" x="108.55" y="0">a</tspan><tspan x="112.64" y="0">tio</tspan><tspan class="cls-75" x="121.62" y="0">n</tspan><tspan class="cls-50" x="125.94" y="0">a</tspan><tspan x="130.15" y="0">l</tspan><tspan class="cls-83" x="132.36" y="0"> </tspan><tspan class="cls-27" x="134.16" y="0">d</tspan><tspan class="cls-91" x="138.44" y="0">e</tspan><tspan class="cls-101" x="142.48" y="0">t</tspan><tspan class="cls-60" x="145.39" y="0">a</tspan><tspan class="cls-101" x="149.65" y="0">i</tspan><tspan x="151.53" y="0">ls: </tspan></text><text class="cls-105" transform="translate(356.76 75.34)">T<tspan class="cls-85" x="4.2" y="0">i</tspan><tspan x="6.08" y="0">t</tspan><tspan class="cls-84" x="8.99" y="0">l</tspan><tspan class="cls-33" x="11.09" y="0">e</tspan><tspan x="15.22" y="0"> </tspan><tspan class="cls-78" x="17.1" y="0">a</tspan><tspan class="cls-39" x="21.37" y="0">nd </tspan><tspan class="cls-16" x="31.82" y="0">s</tspan><tspan class="cls-108" x="35.6" y="0">u</tspan><tspan class="cls-107" x="40.01" y="0">b</tspan><tspan x="44.4" y="0">t</tspan><tspan class="cls-76" x="47.31" y="0">i</tspan><tspan x="49.19" y="0">t</tspan><tspan class="cls-74" x="52.09" y="0">l</tspan><tspan x="54.19" y="0">e:</tspan></text><text class="cls-105" transform="translate(21.97 75.34)"><tspan class="cls-33">S</tspan><tspan class="cls-101" x="5.07" y="0">t</tspan><tspan x="7.98" y="0">a</tspan><tspan class="cls-109" x="12.2" y="0">k</tspan><tspan x="16.19" y="0">eho</tspan><tspan class="cls-74" x="28.87" y="0">l</tspan><tspan x="30.97" y="0">der</tspan></text><text class="cls-110" transform="translate(66.46 75.34)"> </text><text class="cls-105" transform="translate(21.97 83.42)"><tspan class="cls-75">m</tspan><tspan x="6.65" y="0">ap:</tspan></text><text class="cls-105" transform="translate(408.6 171.61)">Lo<tspan class="cls-49" x="8.39" y="0">c</tspan><tspan class="cls-29" x="12.38" y="0">a</tspan><tspan x="16.47" y="0">tion(</tspan><tspan class="cls-43" x="31.91" y="0">s</tspan><tspan x="35.67" y="0">)</tspan><tspan class="cls-29" x="37.91" y="0"> </tspan><tspan class="cls-33" x="39.66" y="0">t</tspan><tspan class="cls-111" x="42.51" y="0">o</tspan><tspan class="cls-88" x="46.63" y="0"> </tspan><tspan class="cls-109" x="48.42" y="0">e</tspan><tspan class="cls-56" x="52.46" y="0">xp</tspan><tspan class="cls-94" x="60.97" y="0">l</tspan><tspan class="cls-56" x="63.07" y="0">o</tspan><tspan class="cls-53" x="67.27" y="0">r</tspan><tspan x="70" y="0">e:</tspan></text><text class="cls-110" transform="translate(484.31 171.61)"> </text><text class="cls-112" transform="translate(408.6 179.69)"> </text><text class="cls-105" transform="translate(219.17 268.81)">T<tspan class="cls-95" x="4.2" y="0">i</tspan><tspan x="6.14" y="0">mel</tspan><tspan class="cls-81" x="19.17" y="0">i</tspan><tspan x="21.1" y="0">ne(</tspan><tspan class="cls-83" x="31.76" y="0">s</tspan><tspan class="cls-27" x="35.53" y="0">)</tspan><tspan class="cls-113" x="37.76" y="0"> </tspan><tspan class="cls-33" x="39.51" y="0">t</tspan><tspan class="cls-43" x="42.36" y="0">o</tspan><tspan class="cls-38" x="46.48" y="0"> </tspan><tspan class="cls-80" x="48.27" y="0">e</tspan><tspan x="52.3" y="0">xp</tspan><tspan class="cls-84" x="60.81" y="0">l</tspan><tspan class="cls-27" x="62.91" y="0">o</tspan><tspan class="cls-53" x="67.11" y="0">r</tspan><tspan x="69.84" y="0">e:</tspan></text><text class="cls-105" transform="translate(219.17 364.77)">Principle the design upholds: </text><g class="cls-2"><path class="cls-114" d="M64.27,394.84a9.92,9.92,0,1,0-9.92-9.92,9.92,9.92,0,0,0,9.92,9.92"/><path class="cls-115" d="M64.27,394.84a9.92,9.92,0,1,0-9.92-9.92A9.92,9.92,0,0,0,64.27,394.84Z"/><path class="cls-7" d="M38,379.69a6.21,6.21,0,1,0-6.2-6.21,6.21,6.21,0,0,0,6.2,6.21"/><path class="cls-115" d="M38,379.69a6.21,6.21,0,1,0-6.2-6.21A6.21,6.21,0,0,0,38,379.69Z"/><circle class="cls-115" cx="56.44" cy="357.37" r="4.16"/><path class="cls-114" d="M84.26,414.85a20,20,0,0,0-40,0Z"/><path class="cls-115" d="M84.26,414.85a20,20,0,0,0-40,0Z"/><path class="cls-7" d="M50.79,392.75a12.78,12.78,0,0,0-25.55,0Z"/><path class="cls-115" d="M50.79,392.75a12.78,12.78,0,0,0-25.55,0Z"/><path class="cls-115" d="M65.26,370.79a8.83,8.83,0,0,0-17.63,0Z"/></g><text class="cls-12" transform="translate(21.97 51.17)">WHO</text><text class="cls-116" transform="translate(72.1 42.91)">W<tspan class="cls-16" x="7.03" y="0">h</tspan><tspan class="cls-91" x="11.24" y="0">o</tspan><tspan class="cls-117" x="15.29" y="0"> </tspan><tspan class="cls-19" x="16.95" y="0">wi</tspan><tspan class="cls-118" x="24.63" y="0">l</tspan><tspan class="cls-16" x="26.69" y="0">l</tspan><tspan class="cls-83" x="28.85" y="0"> </tspan><tspan class="cls-71" x="30.64" y="0">yo</tspan><tspan class="cls-39" x="38.5" y="0">u</tspan></text><text class="cls-14" transform="translate(114.83 42.91)"> </text><text class="cls-14" transform="translate(72.1 51)"><tspan class="cls-29">f</tspan><tspan class="cls-16" x="2.85" y="0">o</tspan><tspan class="cls-71" x="6.99" y="0">c</tspan><tspan class="cls-19" x="10.94" y="0">u</tspan><tspan class="cls-91" x="15.15" y="0">s</tspan><tspan class="cls-80" x="18.85" y="0"> </tspan><tspan class="cls-16" x="20.57" y="0">on</tspan><tspan x="28.92" y="0">?</tspan></text><line class="cls-4" x1="208.6" y1="251.17" x2="775.95" y2="251.17"/><line class="cls-119" x1="208.6" y1="347.44" x2="775.95" y2="347.44"/><line class="cls-4" x1="324.04" y1="57.58" x2="776.88" y2="57.58"/><line class="cls-4" x1="15.44" y1="58.01" x2="103.9" y2="58.01"/><line class="cls-4" x1="391.46" y1="154.28" x2="776.73" y2="154.28"/><text class="cls-12" transform="translate(319.95 50.86)">WH<tspan class="cls-120" x="32.31" y="0">A</tspan><tspan class="cls-121" x="45.22" y="0">T</tspan></text><text class="cls-14" transform="translate(382.41 42.6)">W<tspan class="cls-47" x="7.11" y="0">h</tspan><tspan class="cls-29" x="11.41" y="0">a</tspan><tspan x="15.5" y="0">t are you calling your design? </tspan></text><text class="cls-14" transform="translate(558 42.6)"> </text><text class="cls-14" transform="translate(382.41 50.69)">H<tspan class="cls-71" x="5.23" y="0">o</tspan><tspan class="cls-43" x="9.3" y="0">w</tspan><tspan x="15.16" y="0" xml:space="preserve"> sh</tspan><tspan class="cls-122" x="25.17" y="0">o</tspan><tspan class="cls-81" x="29.31" y="0">u</tspan><tspan class="cls-74" x="33.66" y="0">l</tspan><tspan x="35.76" y="0">d</tspan><tspan class="cls-123" x="40.03" y="0"> </tspan><tspan class="cls-53" x="41.77" y="0">w</tspan><tspan class="cls-33" x="47.6" y="0">e</tspan><tspan x="51.74" y="0"> </tspan><tspan class="cls-47" x="53.62" y="0">n</tspan><tspan class="cls-124" x="57.93" y="0">a</tspan><tspan class="cls-55" x="62.2" y="0">m</tspan><tspan class="cls-122" x="68.82" y="0">e</tspan><tspan class="cls-51" x="72.96" y="0"> </tspan><tspan class="cls-56" x="74.76" y="0">o</tspan><tspan class="cls-82" x="78.96" y="0">r</tspan><tspan class="cls-55" x="81.54" y="0"> </tspan><tspan class="cls-53" x="83.42" y="0">r</tspan><tspan class="cls-29" x="86.15" y="0">e</tspan><tspan class="cls-86" x="90.22" y="0">f</tspan><tspan x="93.14" y="0">e</tspan><tspan class="cls-82" x="97.34" y="0">r</tspan><tspan class="cls-74" x="99.92" y="0"> </tspan><tspan class="cls-33" x="101.68" y="0">t</tspan><tspan class="cls-111" x="104.53" y="0">o</tspan><tspan class="cls-55" x="108.65" y="0"> </tspan><tspan class="cls-76" x="110.53" y="0">i</tspan><tspan class="cls-54" x="112.41" y="0">t</tspan><tspan class="cls-55" x="115.36" y="0">?</tspan></text><g class="cls-125"><path class="cls-4" d="M776.41,110.66H374.27c-23.51-37.23-60.12-66.08-103.74-80.73H776.41Z"/></g><rect class="cls-3" x="208.68" y="416.4" width="568.13" height="28.55"/><rect class="cls-4" x="208.83" y="417.18" width="567.97" height="181.65"/><text class="cls-126" transform="translate(266.38 434.18)">What participant problem does it solve? </text><text class="cls-105" transform="translate(219.25 462.13)">Principle the design upholds: </text><line class="cls-119" x1="208.68" y1="444.8" x2="776.03" y2="444.8"/><text class="cls-13" transform="translate(215.75 437.18)">WHY</text><text class="cls-127" transform="translate(15.59 19.82)">Convergent Thinking Framework: Understand the constraints of your ideas<tspan class="cls-128" x="559.96" y="0"> </tspan></text><g class="cls-129"><path class="cls-4" d="M401.51,211H401a194.81,194.81,0,0,0-22.22-85.05"/></g></svg>