<svg id="Layer_1" data-name="Layer 1" xmlns="http://www.w3.org/2000/svg" viewBox="0 0 792 612"><defs><style>.cls-1{fill:#ff0;}.cls-2{fill:#f3f1e6;}.cls-3{font-size:18.66px;font-family:PublicSans-Black, Public Sans;font-weight:800;}.cls-10,.cls-3,.cls-4,.cls-5{fill:#636567;}.cls-4{font-size:16px;letter-spacing:-0.01em;}.cls-4,.cls-5{font-family:PublicSans-Bold, Public Sans;font-weight:700;}.cls-5{font-size:12px;}.cls-10,.cls-6,.cls-7,.cls-8{font-size:7.47px;}.cls-10,.cls-7{font-family:PublicSans-ExtraLight, Public Sans;font-weight:200;}.cls-8{fill:#0396a0;font-family:Chivo-Regular, Chivo;}.cls-11,.cls-9{fill:none;stroke:#626366;}.cls-11{stroke-linecap:round;}.cls-12{fill:#1073b9;stroke:#fff;stroke-linejoin:round;stroke-width:1.25px;}</style></defs><title>framework-design-analysis</title><rect class="cls-1" x="519" y="36" width="147" height="13" rx="1.4"/><rect class="cls-2" x="13.09" y="53.12" width="760.26" height="28.49"/><text class="cls-3" transform="translate(26.09 73.17)">Name of your design: </text><text class="cls-4" transform="translate(18.93 26.11)">Design Analysis Framework: What are the required parts of your design expression? </text><text class="cls-5" transform="translate(18.93 45.24)">When to use:<tspan class="cls-6" x="73.73" y="0"> </tspan><tspan class="cls-7" x="75.41" y="0">Take apart your design to understand how it works as a whole. In engineering, this is known as “identifying variables”. Each part, or variable, will have to be designed. </tspan></text><text class="cls-5" transform="translate(13.09 97.24)">Directions:<tspan class="cls-6" x="62.21" y="0"> </tspan><tspan class="cls-7" x="63.89" y="0">Use these rectangles to first describe your design as a whole, then to identify its parts. Break down any big parts into its smaller, most basic component parts. This is like building with Lego in reverse. </tspan></text><text class="cls-8" transform="translate(26.94 111.38)"> </text><rect class="cls-9" x="13.09" y="108.01" width="247.14" height="468.38" rx="10"/><rect class="cls-9" x="269.68" y="108.01" width="247.14" height="150.24" rx="10"/><rect class="cls-9" x="526.28" y="108.01" width="247.14" height="150.24" rx="10"/><rect class="cls-9" x="269.68" y="267.25" width="247.14" height="150.24" rx="10"/><rect class="cls-9" x="526.28" y="267.25" width="247.14" height="150.24" rx="10"/><rect class="cls-9" x="268.68" y="426.25" width="247.14" height="150.24" rx="10"/><rect class="cls-9" x="525.28" y="426.25" width="247.14" height="150.24" rx="10"/><text class="cls-10" transform="translate(277.13 125.6)">Name of part</text><line class="cls-11" x1="327.92" y1="125.89" x2="497.92" y2="125.89"/><text class="cls-10" transform="translate(277.13 138.77)">Description of part, written or drawn. </text><text class="cls-10" transform="translate(536.13 125.6)">Name of part</text><line class="cls-11" x1="586.92" y1="125.89" x2="756.92" y2="125.89"/><text class="cls-10" transform="translate(536.13 138.77)">Description of part, written or drawn. </text><text class="cls-10" transform="translate(277.13 283.6)">Name of part</text><line class="cls-11" x1="327.92" y1="283.89" x2="497.92" y2="283.89"/><text class="cls-10" transform="translate(277.13 296.77)">Description of part, written or drawn. </text><text class="cls-10" transform="translate(536.13 283.6)">Name of part</text><line class="cls-11" x1="586.92" y1="283.89" x2="756.92" y2="283.89"/><text class="cls-10" transform="translate(536.13 296.77)">Description of part, written or drawn. </text><text class="cls-10" transform="translate(276.13 442.6)">Name of part</text><line class="cls-11" x1="326.92" y1="442.89" x2="496.92" y2="442.89"/><text class="cls-10" transform="translate(276.13 455.77)">Description of part, written or drawn. </text><text class="cls-10" transform="translate(535.13 442.6)">Name of part</text><line class="cls-11" x1="585.92" y1="442.89" x2="755.92" y2="442.89"/><text class="cls-10" transform="translate(535.13 455.77)">Description of part, written or drawn. </text><text class="cls-10" transform="translate(20.13 125.6)">Description of part, written, drawn, or both. </text><polygon class="cls-12" points="511.92 219.9 511.92 252.89 478.92 252.89 511.92 219.9"/><polygon class="cls-12" points="750.92 572.72 750.92 539.72 767.41 556.22 750.92 572.72"/><text class="cls-5" transform="translate(142.99 598.82)">Need more cards? Print out more copies of this framework, or just cut out rectangles from a blank page!</text><polygon class="cls-12" points="772.42 601.67 739.42 601.67 755.92 585.17 772.42 601.67"/><polygon class="cls-12" points="493.29 395.73 460.29 395.73 476.79 412.23 509.78 412.23 493.29 395.73"/><polygon class="cls-12" points="733.42 378.9 700.43 411.89 733.42 411.89 766.41 411.89 733.42 378.9"/><polygon class="cls-12" points="477.78 537.9 444.79 570.89 477.78 570.89 510.78 570.89 477.78 537.9"/><rect class="cls-12" x="739.62" y="225.55" width="23.33" height="23.33" transform="translate(52.31 600.72) rotate(-45)"/><polygon class="cls-12" points="229.13 523.82 229.13 497.54 255.42 497.54 229.13 523.82"/><polygon class="cls-12" points="229.13 550.1 229.13 523.82 242.28 536.96 229.13 550.1"/><polygon class="cls-12" points="189.71 510.68 215.99 510.68 202.85 523.82 189.71 510.68"/><polygon class="cls-12" points="202.85 497.54 176.56 497.54 189.71 510.68 215.99 510.68 202.85 497.54"/><polygon class="cls-12" points="202.85 523.82 229.13 550.1 229.13 523.82 229.13 497.54 202.85 523.82"/><polygon class="cls-12" points="208.02 544.93 181.74 571.21 208.02 571.21 234.31 571.21 208.02 544.93"/><rect class="cls-12" x="206.7" y="488.24" width="18.59" height="18.59" transform="translate(-288.55 298.45) rotate(-45)"/></svg>