<svg id="Layer_1" data-name="Layer 1" xmlns="http://www.w3.org/2000/svg" viewBox="0 0 630 297.86"><defs><style>.cls-1{fill:#ebf9fb;}.cls-2{fill:#1073b9;stroke:#fff;stroke-linejoin:round;stroke-width:1.25px;}</style></defs><title>complex-design-brittle</title><rect class="cls-1" y="37.87" width="630" height="240"/><polygon class="cls-2" points="126.72 246.62 154.72 264.07 138.96 195.78 116.23 201.05 88.23 183.61 93.51 206.33 98.79 229.06 98.97 229.83 82.11 256.88 58.62 262.34 86.62 279.79 114.62 297.24 109.34 274.51 126.72 246.62"/><polygon class="cls-2" points="117.27 199.95 139.9 194.28 145.57 216.91 173.87 233.86 168.2 211.23 162.53 188.6 162.33 187.84 178.72 160.49 202.11 154.63 173.81 137.67 145.51 120.71 151.18 143.34 146.21 151.63 126.2 139.64 114.21 159.65 105.92 154.69 117.27 199.95"/><polygon class="cls-2" points="280.51 226.74 297.73 198.59 325.88 215.8 280.51 226.74"/><polygon class="cls-2" points="141.5 120.65 169.76 137.67 198.03 154.68 186.78 109.4 186.01 109.59 158.7 93.15 152.88 69.74 135.87 98.01 118.85 126.28 141.5 120.65"/><polygon class="cls-2" points="198.03 154.68 220.68 149.05 215.05 126.41 232.06 98.14 209.42 103.77 186.78 109.4 192.41 132.04 198.03 154.68"/><polygon class="cls-2" points="300.19 242.39 327.76 224.25 323.05 247.1 300.19 242.39"/><polygon class="cls-2" points="285.58 218.34 277.15 186.44 297.32 198.17 285.58 218.34"/><polygon class="cls-2" points="236.18 195.72 235.86 194.35 225.62 150.27 180.17 160.83 197.05 171.34 204.19 202.11 236.18 195.72"/><polygon class="cls-2" points="254.5 191.44 282.5 208.88 277.23 186.16 268.84 180.94 280.85 162.39 261.26 149.71 261.09 149.98 222.17 125.35 229.41 157.54 236.65 189.73 249.29 169.75 249.49 169.88 254.5 191.44"/><polygon class="cls-2" points="359.33 179.51 403.07 169.35 405.33 170.73 399.9 148.04 394.47 125.35 383.61 79.97 360.92 85.4 366.35 108.09 322.17 118.67 321.93 118.52 321.98 118.71 320.97 118.95 322.21 119.72 327.21 141.24 332.01 161.9 336.44 184.1 291.68 194.5 319.68 211.94 347.69 229.39 342.57 207.35 364.6 202.24 359.33 179.51"/><polygon class="cls-2" points="423.19 103.94 382.98 80.27 391.25 112.21 399.52 144.15 423.19 103.94"/><polygon class="cls-2" points="443.49 84.6 438.92 51.92 471.59 47.35 443.49 84.6"/><polygon class="cls-2" points="392.19 75.12 424.86 70.55 410.81 89.17 392.19 75.12"/><polygon class="cls-2" points="406.24 56.49 373.56 61.06 392.19 75.12 424.86 70.55 406.24 56.49"/><polygon class="cls-2" points="410.81 89.17 448.06 117.28 443.49 84.6 438.92 51.92 410.81 89.17"/><polygon class="cls-2" points="429.43 103.22 401.32 140.47 434 135.9 466.68 131.33 429.43 103.22"/><polygon class="cls-2" points="490.22 65.98 485.65 33.3 481.08 0.63 452.97 37.87 469.04 50 455.26 68.26 473.88 82.32 487.66 64.05 490.22 65.98"/></svg>