<?xml version="1.0" encoding="utf-8"?>
<!-- Generator: Adobe Illustrator 23.0.2, SVG Export Plug-In . SVG Version: 6.00 Build 0)  -->
<svg version="1.1" id="Layer_1" xmlns="http://www.w3.org/2000/svg" xmlns:xlink="http://www.w3.org/1999/xlink" x="0px" y="0px"
	 viewBox="0 0 630 240" style="enable-background:new 0 0 630 240;" xml:space="preserve">
<style type="text/css">
	.st0{fill:#EBF9FB;}
	.st1{fill:#1073B9;stroke:#FFFFFF;stroke-width:1.25;stroke-linejoin:round;}
</style>
<rect x="0" y="0" class="st0" width="630" height="240"/>
<polygon class="st1" points="99.22,114.13 132.22,114.13 82.72,64.51 66.23,81 33.23,81 49.73,97.5 66.23,114 66.79,114.56 
	66.79,146.43 49.73,163.49 82.72,163.49 115.72,163.49 99.22,146.99 "/>
<g>
	<polygon class="st1" points="246.21,66 246.21,99 279.2,99 	"/>
	<polygon class="st1" points="200.77,146.99 200.77,114 217.27,130.49 	"/>
	<polygon class="st1" points="183.71,97.5 216.71,97.5 200.21,114 	"/>
	<polygon class="st1" points="200.21,81 167.22,81 183.71,97.5 216.71,97.5 	"/>
	<polygon class="st1" points="200.21,114 233.21,146.99 233.21,114 233.21,81 	"/>
	<polygon class="st1" points="216.71,130.49 183.71,163.49 216.71,163.49 249.7,163.49 	"/>
	
		<rect x="205.04" y="69.34" transform="matrix(0.7071 -0.7071 0.7071 0.7071 6.1946 176.9608)" class="st1" width="23.33" height="23.33"/>
</g>
<g>
	<polygon class="st1" points="402.83,81 402.83,114 435.82,114 	"/>
	<polygon class="st1" points="370.39,146.99 370.39,114 386.89,130.49 	"/>
	<polygon class="st1" points="353.34,97.5 386.33,97.5 369.83,114 	"/>
	<polygon class="st1" points="339.03,84.36 314.2,106.09 337.48,107.64 362.31,85.91 	"/>
	<polygon class="st1" points="369.83,114 402.83,146.99 402.83,114 402.83,81 	"/>
	<polygon class="st1" points="386.33,130.49 353.34,163.49 386.33,163.49 419.33,163.49 	"/>
	
		<rect x="374.67" y="69.34" transform="matrix(0.7071 -0.7071 0.7071 0.7071 55.8763 296.9031)" class="st1" width="23.33" height="23.33"/>
</g>
<g>
	<polygon class="st1" points="536.81,82.5 536.81,115.49 569.81,115.49 	"/>
	<polygon class="st1" points="487.32,97.5 520.31,97.5 503.82,114 	"/>
	<polygon class="st1" points="503.82,81 470.82,81 487.32,97.5 520.31,97.5 	"/>
	<polygon class="st1" points="503.82,114 536.81,146.99 536.81,114 536.81,81 	"/>
	<polygon class="st1" points="520.31,130.49 487.32,163.49 520.31,163.49 553.31,163.49 	"/>
	
		<rect x="508.65" y="69.34" transform="matrix(0.7071 -0.7071 0.7071 0.7071 95.119 391.6434)" class="st1" width="23.33" height="23.33"/>
	<polygon class="st1" points="527.27,127.2 496.46,139 505.97,117.69 	"/>
</g>
</svg>
