<svg xmlns="http://www.w3.org/2000/svg" viewBox="0 0 630 240"><defs><style>.cls-1{fill:#ebf9fb;}.cls-2,.cls-45{fill:none;}.cls-3{fill:#1073b9;stroke:#fff;stroke-width:1.25px;}.cls-3,.cls-45{stroke-linejoin:round;}.cls-22,.cls-4{font-size:9px;}.cls-28,.cls-4{font-family:PublicSans-ExtraLight, Public Sans;font-weight:200;}.cls-5{letter-spacing:-0.01em;}.cls-6{letter-spacing:0em;}.cls-7{letter-spacing:0.01em;}.cls-8{letter-spacing:0em;}.cls-9{letter-spacing:0.01em;}.cls-10{letter-spacing:-0.02em;}.cls-11{letter-spacing:-0.02em;}.cls-12{letter-spacing:-0.01em;}.cls-13{letter-spacing:0.01em;}.cls-14{letter-spacing:-0.01em;}.cls-15{letter-spacing:-0.07em;}.cls-16{letter-spacing:-0.01em;}.cls-17{letter-spacing:0em;}.cls-18{letter-spacing:-0.02em;}.cls-19{letter-spacing:-0.01em;}.cls-20{letter-spacing:-0.01em;}.cls-21{letter-spacing:-0.07em;}.cls-22{font-family:PublicSans-Bold, Public Sans;font-weight:700;}.cls-23{letter-spacing:0em;}.cls-24{letter-spacing:0em;}.cls-25{letter-spacing:-0.01em;}.cls-26{letter-spacing:-0.02em;}.cls-27{letter-spacing:0em;}.cls-29{letter-spacing:0em;}.cls-30{letter-spacing:-0.02em;}.cls-31{letter-spacing:0em;}.cls-32{letter-spacing:-0.02em;}.cls-33{letter-spacing:-0.01em;}.cls-34{letter-spacing:-0.05em;}.cls-35{letter-spacing:-0.01em;}.cls-36{letter-spacing:0em;}.cls-37{letter-spacing:-0.01em;}.cls-38{letter-spacing:0em;}.cls-39{letter-spacing:-0.01em;}.cls-40{letter-spacing:-0.02em;}.cls-41{letter-spacing:-0.03em;}.cls-42{letter-spacing:-0.02em;}.cls-43{letter-spacing:-0.03em;}.cls-44{letter-spacing:-0.02em;}.cls-45{stroke:#000;stroke-linecap:round;stroke-width:2px;}</style></defs><title>illo-balance-participant-needs</title><g id="Layer_1" data-name="Layer 1"><rect class="cls-1" width="630" height="240"/><rect class="cls-2" width="630" height="240"/></g><g id="Layer_2" data-name="Layer 2"><polygon class="cls-3" points="86.99 94.47 119.98 127.47 119.98 94.47 119.98 61.48 86.99 94.47"/><polygon class="cls-3" points="86.99 94.91 54 127.9 86.99 127.9 119.98 127.9 86.99 94.91"/><polygon class="cls-3" points="210 94.85 176.95 61.91 177.01 94.91 177.06 127.9 210 94.85"/><polygon class="cls-3" points="209.97 94.91 176.98 127.9 209.97 127.9 242.97 127.9 209.97 94.91"/><polygon class="cls-3" points="516.25 94.91 549.23 61.91 516.24 61.91 483.24 61.92 516.25 94.91"/><polygon class="cls-3" points="516.24 94.91 483.25 127.9 516.24 127.9 549.24 127.9 516.24 94.91"/><polygon class="cls-3" points="314.07 78.41 347.06 111.41 347.06 78.41 347.06 45.42 314.07 78.41"/><polygon class="cls-3" points="330.56 94.91 297.57 127.9 330.56 127.9 363.56 127.9 330.56 94.91"/></g><g id="text"><text class="cls-4" transform="translate(62.81 154.67)"><tspan class="cls-5">P</tspan><tspan x="5.64" y="0">a</tspan><tspan class="cls-6" x="10.73" y="0">r</tspan><tspan x="14.17" y="0">tic</tspan><tspan class="cls-7" x="24.85" y="0">i</tspan><tspan class="cls-8" x="27.18" y="0">p</tspan><tspan class="cls-9" x="32.44" y="0">a</tspan><tspan class="cls-10" x="37.58" y="0">n</tspan><tspan x="42.59" y="0">t </tspan><tspan x="4.73" y="10.8">G</tspan><tspan class="cls-11" x="11.29" y="10.8">r</tspan><tspan class="cls-12" x="14.57" y="10.8">o</tspan><tspan class="cls-13" x="19.56" y="10.8">u</tspan><tspan class="cls-14" x="24.79" y="10.8">p</tspan><tspan x="29.95" y="10.8" xml:space="preserve"> 1</tspan><tspan class="cls-15" x="35.62" y="10.8">’</tspan><tspan class="cls-16" x="36.82" y="10.8">s</tspan><tspan class="cls-17" x="41.35" y="10.8"> </tspan><tspan class="cls-8" x="3.62" y="21.6">p</tspan><tspan class="cls-11" x="8.87" y="21.6">r</tspan><tspan class="cls-18" x="12.15" y="21.6">e</tspan><tspan class="cls-19" x="17.05" y="21.6">f</tspan><tspan x="20.57" y="21.6">er</tspan><tspan class="cls-11" x="29.05" y="21.6">r</tspan><tspan class="cls-5" x="32.33" y="21.6">e</tspan><tspan x="37.31" y="21.6">d </tspan><tspan x="10.34" y="32.4">d</tspan><tspan class="cls-20" x="15.5" y="32.4">e</tspan><tspan x="20.47" y="32.4">sign</tspan></text><text class="cls-4" transform="translate(185.78 154.67)"><tspan class="cls-5">P</tspan><tspan x="5.64" y="0">a</tspan><tspan class="cls-6" x="10.73" y="0">r</tspan><tspan x="14.17" y="0">tic</tspan><tspan class="cls-7" x="24.85" y="0">i</tspan><tspan class="cls-8" x="27.18" y="0">p</tspan><tspan class="cls-9" x="32.44" y="0">a</tspan><tspan class="cls-10" x="37.58" y="0">n</tspan><tspan x="42.59" y="0">t </tspan><tspan x="3.89" y="10.8">G</tspan><tspan class="cls-11" x="10.45" y="10.8">r</tspan><tspan class="cls-12" x="13.72" y="10.8">o</tspan><tspan class="cls-13" x="18.71" y="10.8">u</tspan><tspan class="cls-14" x="23.95" y="10.8">p</tspan><tspan x="29.11" y="10.8" xml:space="preserve"> 2</tspan><tspan class="cls-21" x="36.47" y="10.8">’</tspan><tspan class="cls-14" x="37.66" y="10.8">s</tspan><tspan class="cls-17" x="42.2" y="10.8"> </tspan><tspan class="cls-8" x="3.62" y="21.6">p</tspan><tspan class="cls-11" x="8.87" y="21.6">r</tspan><tspan class="cls-18" x="12.15" y="21.6">e</tspan><tspan class="cls-19" x="17.05" y="21.6">f</tspan><tspan x="20.57" y="21.6">er</tspan><tspan class="cls-11" x="29.05" y="21.6">r</tspan><tspan class="cls-5" x="32.33" y="21.6">e</tspan><tspan x="37.31" y="21.6">d </tspan><tspan x="10.34" y="32.4">d</tspan><tspan class="cls-20" x="15.5" y="32.4">e</tspan><tspan x="20.47" y="32.4">sign</tspan></text><text class="cls-4" transform="translate(306.39 154.67)"><tspan class="cls-5">P</tspan><tspan x="5.64" y="0">a</tspan><tspan class="cls-6" x="10.73" y="0">r</tspan><tspan x="14.17" y="0">tic</tspan><tspan class="cls-7" x="24.85" y="0">i</tspan><tspan class="cls-8" x="27.18" y="0">p</tspan><tspan class="cls-9" x="32.44" y="0">a</tspan><tspan class="cls-10" x="37.58" y="0">n</tspan><tspan x="42.59" y="0">t </tspan><tspan x="3.63" y="10.8">G</tspan><tspan class="cls-11" x="10.19" y="10.8">r</tspan><tspan class="cls-12" x="13.46" y="10.8">o</tspan><tspan class="cls-13" x="18.45" y="10.8">u</tspan><tspan class="cls-14" x="23.69" y="10.8">p</tspan><tspan x="28.84" y="10.8" xml:space="preserve"> 3</tspan><tspan class="cls-15" x="36.73" y="10.8">’</tspan><tspan class="cls-14" x="37.92" y="10.8">s</tspan><tspan x="42.46" y="10.8"> </tspan><tspan class="cls-8" x="4.75" y="21.6">p</tspan><tspan class="cls-11" x="10.01" y="21.6">r</tspan><tspan class="cls-18" x="13.28" y="21.6">e</tspan><tspan class="cls-19" x="18.19" y="21.6">f</tspan><tspan x="21.71" y="21.6">er</tspan><tspan class="cls-11" x="30.18" y="21.6">r</tspan><tspan class="cls-5" x="33.46" y="21.6">e</tspan><tspan x="38.45" y="21.6">d</tspan><tspan x="10.34" y="32.4">d</tspan><tspan class="cls-20" x="15.5" y="32.4">e</tspan><tspan x="20.47" y="32.4">sign</tspan></text><text class="cls-22" transform="translate(488.48 154.67)">F<tspan class="cls-23" x="5.49" y="0">i</tspan><tspan class="cls-24" x="8" y="0">n</tspan><tspan class="cls-25" x="13.38" y="0">a</tspan><tspan x="18.46" y="0">l </tspan><tspan class="cls-19" x="23.41" y="0">D</tspan><tspan class="cls-26" x="29.83" y="0">e</tspan><tspan x="34.81" y="0">s</tspan><tspan class="cls-27" x="39.6" y="0">i</tspan><tspan class="cls-17" x="42.09" y="0">gn:</tspan><tspan class="cls-28"><tspan x="-26.27" y="10.8">A</tspan><tspan class="cls-14" x="-19.92" y="10.8"> </tspan><tspan x="-17.76" y="10.8">d</tspan><tspan class="cls-20" x="-12.6" y="10.8">e</tspan><tspan x="-7.64" y="10.8">sign</tspan><tspan class="cls-18" x="9.9" y="10.8"> </tspan><tspan x="12.02" y="10.8">t</tspan><tspan class="cls-29" x="15.52" y="10.8">h</tspan><tspan class="cls-10" x="20.71" y="10.8">a</tspan><tspan x="25.64" y="10.8">t m</tspan><tspan class="cls-19" x="39.39" y="10.8">e</tspan><tspan class="cls-30" x="44.37" y="10.8">e</tspan><tspan class="cls-31" x="49.24" y="10.8">t</tspan><tspan class="cls-14" x="52.74" y="10.8">s </tspan><tspan class="cls-32" x="59.44" y="10.8">e</tspan><tspan x="64.34" y="10.8">ach </tspan><tspan x="-16.11" y="21.6">g</tspan><tspan class="cls-11" x="-10.63" y="21.6">r</tspan><tspan class="cls-33" x="-7.36" y="21.6">o</tspan><tspan class="cls-7" x="-2.37" y="21.6">u</tspan><tspan class="cls-34" x="2.87" y="21.6">p</tspan><tspan class="cls-15" x="7.71" y="21.6">’</tspan><tspan class="cls-14" x="8.91" y="21.6">s </tspan><tspan x="15.6" y="21.6">cr</tspan><tspan class="cls-27" x="23.94" y="21.6">i</tspan><tspan x="26.21" y="21.6">ti</tspan><tspan class="cls-35" x="31.97" y="21.6">c</tspan><tspan class="cls-36" x="36.78" y="21.6">a</tspan><tspan x="41.84" y="21.6">l n</tspan><tspan class="cls-5" x="51.95" y="21.6">ee</tspan><tspan x="61.92" y="21.6">d</tspan><tspan class="cls-16" x="67.08" y="21.6">s</tspan><tspan class="cls-7" x="-25.14" y="32.4">i</tspan><tspan x="-22.81" y="32.4">n </tspan><tspan class="cls-37" x="-15.38" y="32.4">b</tspan><tspan class="cls-38" x="-10.22" y="32.4">a</tspan><tspan class="cls-27" x="-5.15" y="32.4">l</tspan><tspan class="cls-9" x="-2.47" y="32.4">a</tspan><tspan x="2.68" y="32.4">n</tspan><tspan class="cls-39" x="7.84" y="32.4">c</tspan><tspan class="cls-19" x="12.63" y="32.4">e</tspan><tspan class="cls-40" x="17.62" y="32.4"> </tspan><tspan x="19.71" y="32.4">w</tspan><tspan class="cls-27" x="26.87" y="32.4">i</tspan><tspan x="29.14" y="32.4">th</tspan><tspan class="cls-18" x="37.79" y="32.4"> </tspan><tspan x="39.91" y="32.4">th</tspan><tspan class="cls-19" x="48.57" y="32.4">e</tspan><tspan x="53.55" y="32.4" xml:space="preserve"> n</tspan><tspan class="cls-19" x="60.99" y="32.4">ee</tspan><tspan x="70.96" y="32.4">d</tspan><tspan class="cls-14" x="76.12" y="32.4">s</tspan><tspan class="cls-41" x="-4.8" y="43.2">o</tspan><tspan x="0.04" y="43.2">f</tspan><tspan class="cls-14" x="3.63" y="43.2"> </tspan><tspan class="cls-42" x="5.79" y="43.2">o</tspan><tspan x="10.67" y="43.2">the</tspan><tspan class="cls-43" x="24.38" y="43.2">r</tspan><tspan x="27.49" y="43.2" xml:space="preserve"> g</tspan><tspan class="cls-11" x="35.23" y="43.2">r</tspan><tspan class="cls-33" x="38.5" y="43.2">o</tspan><tspan class="cls-7" x="43.49" y="43.2">u</tspan><tspan class="cls-8" x="48.73" y="43.2">p</tspan><tspan class="cls-17" x="53.98" y="43.2">s</tspan><tspan class="cls-44" x="58.63" y="43.2">.</tspan></tspan></text><line class="cls-45" x1="405.24" y1="86.66" x2="448.47" y2="86.66"/><polygon points="446.28 94.14 459.23 86.66 446.28 79.18 446.28 94.14"/></g></svg>